Coordinates
version=1
nRows=10
nColumns=46
inDegrees=yes

Units are S.I. units (second, meters, Newtons, ...)
Angles are in degrees.

endheader
time	pelvis_tilt	pelvis_list	pelvis_rotation	pelvis_tx	pelvis_ty	pelvis_tz	bb_angle	bb_tx	bb_ty	bb_tz	hip_flexion_r	hip_adduction_r	hip_rotation_r	knee_angle_r	knee_angle_r_beta	ankle_angle_r	subtalar_angle_r	mtp_angle_r	crank_angle_r	hip_flexion_l	hip_adduction_l	hip_rotation_l	knee_angle_l	knee_angle_l_beta	ankle_angle_l	subtalar_angle_l	mtp_angle_l	crank_angle_l	lumbar_extension	lumbar_bending	lumbar_rotation	arm_flex_r	arm_add_r	arm_rot_r	elbow_flex_r	pro_sup_r	wrist_flex_r	wrist_dev_r	arm_flex_l	arm_add_l	arm_rot_l	elbow_flex_l	pro_sup_l	wrist_flex_l	wrist_dev_l
      7.50500000	    -18.17702204	      7.08374668	      7.22609580	      0.15598740	      1.15822901	     -0.22925095	      0.00000000	      0.50000000	      0.00000000	      0.25000000	     50.43368810	    -15.97141032	     -7.10035022	     61.25277390	      1.06906258	      0.17502568	     -3.63736450	      0.00000000	      0.00000000	     92.17663011	      1.05869871	     -0.86702114	     96.95142520	      1.69212158	     -5.97068089	      3.15253962	      0.00000000	      0.00000000	    -64.67204505	     -2.99804060	     -7.40383043	     89.51264862	    -23.93188779	     30.91043248	     65.62009604	     32.78351817	      0.00000000	      0.00000000	     89.75279346	    -11.60626675	     28.01586814	     69.23039479	     32.78131046	      0.00000000	      0.00000000
      7.51000000	    -18.32530552	      6.80487709	      7.19775485	      0.15537387	      1.15740571	     -0.22874827	      0.00000000	      0.50000000	      0.00000000	      0.25000000	     51.68633565	    -15.67006249	     -6.67603754	     63.56261730	      1.10937695	     -1.04419294	     -4.95153260	      0.00000000	      0.00000000	     91.09754871	      1.02545466	     -0.51933081	     95.24157416	      1.66227905	     -2.97235770	      4.42380632	      0.00000000	      0.00000000	    -64.62041128	     -2.99606999	     -6.78279319	     89.50325120	    -25.00707752	     30.98242699	     66.36002783	     33.00918929	      0.00000000	      0.00000000	     89.75414351	    -11.18183717	     27.78126343	     69.20996650	     32.42294450	      0.00000000	      0.00000000
      7.51500000	    -18.45026504	      6.53399544	      7.10811083	      0.15474401	      1.15628015	     -0.22818821	      0.00000000	      0.50000000	      0.00000000	      0.25000000	     52.99982898	    -15.34857728	     -6.25250304	     65.91053555	      1.15035586	     -2.30153554	     -6.08282437	      0.00000000	      0.00000000	     89.92622091	      0.90202629	     -0.27823227	     93.47200553	      1.63139425	     -0.03513718	      5.49869381	      0.00000000	      0.00000000	    -64.57668043	     -3.10168867	     -5.70249663	     89.47992515	    -27.22745361	     31.56494680	     67.82014132	     33.62725334	      0.00000000	      0.00000000	     89.76071675	     -9.92436801	     27.39852944	     68.84375082	     31.14913887	      0.00000000	      0.00000000
      7.52000000	    -18.50454584	      6.37074364	      7.03866453	      0.15420410	      1.15523620	     -0.22780863	      0.00000000	      0.50000000	      0.00000000	      0.25000000	     54.27230568	    -15.13529882	     -5.75560646	     68.28447197	      1.19178886	     -3.43107672	     -6.85844918	      0.00000000	      0.00000000	     88.53624578	      0.97010881	     -0.07827086	     91.54900716	      1.59783160	      2.82742034	      6.04877759	      0.00000000	      0.00000000	    -64.47887544	     -3.10216441	     -5.38274403	     89.46916126	    -27.46983425	     31.44000858	     67.86126350	     33.66531435	      0.00000000	      0.00000000	     89.76213705	     -9.91527430	     27.36321272	     68.78932685	     31.00931585	      0.00000000	      0.00000000
      7.52500000	    -18.48796095	      6.15825234	      6.81514327	      0.15378412	      1.15408853	     -0.22699503	      0.00000000	      0.50000000	      0.00000000	      0.25000000	     55.52711879	    -14.69418050	     -5.20586230	     70.63257985	      1.23277108	     -4.83868463	     -8.04297957	      0.00000000	      0.00000000	     87.01695166	      0.78584886	      0.12573564	     89.55717444	      1.56306756	      5.57049054	      7.02135753	      0.00000000	      0.00000000	    -64.43740493	     -3.24932139	     -4.76665254	     89.45307732	    -28.17112263	     31.41282295	     68.21261145	     33.83730941	      0.00000000	      0.00000000	     89.76302234	     -9.59119883	     27.25409387	     68.39744011	     30.59996477	      0.00000000	      0.00000000
      7.53000000	    -18.44286401	      5.90894181	      6.68708365	      0.15341374	      1.15286732	     -0.22669659	      0.00000000	      0.50000000	      0.00000000	      0.25000000	     56.73941198	    -14.37395502	     -4.77974406	     72.99634204	      1.27402651	     -5.79142034	     -8.49069002	      0.00000000	      0.00000000	     85.40706931	      0.77378575	      0.29371086	     87.42229181	      1.52580683	      7.94575605	      6.83019144	      0.00000000	      0.00000000	    -64.39354164	     -3.19581716	     -4.27388825	     89.45419376	    -28.47185922	     31.35506020	     68.31868766	     33.88712623	      0.00000000	      0.00000000	     89.75953244	     -9.62091216	     27.18035768	     68.15586377	     30.46833015	      0.00000000	      0.00000000
      7.53500000	    -18.34450921	      5.74996537	      6.40692444	      0.15315980	      1.15170354	     -0.22607220	      0.00000000	      0.50000000	      0.00000000	      0.25000000	     57.96463801	    -13.94426004	     -4.21891193	     75.28803184	      1.31402404	     -7.27533199	     -9.65818558	      0.00000000	      0.00000000	     83.63394707	      0.58157965	      0.32439788	     85.10982588	      1.48544669	      9.98058317	      6.95721901	      0.00000000	      0.00000000	    -64.37055034	     -3.43014078	     -3.28649082	     89.39871145	    -30.13131316	     31.89721317	     69.21766573	     34.42725418	      0.00000000	      0.00000000	     89.76297359	     -8.39577381	     27.00203119	     67.28763547	     29.48645045	      0.00000000	      0.00000000
      7.54000000	    -18.13689807	      5.58750306	      6.12409339	      0.15291093	      1.15043840	     -0.22619708	      0.00000000	      0.50000000	      0.00000000	      0.25000000	     59.12951805	    -13.63932354	     -3.72005341	     77.64211206	      1.35511049	     -8.41183705	    -10.18097010	      0.00000000	      0.00000000	     81.74028042	      0.55691948	      0.42047412	     82.75088524	      1.44427541	     11.77059079	      6.66347640	      0.00000000	      0.00000000	    -64.35449331	     -3.46293596	     -2.86059740	     89.37430320	    -30.21284263	     31.88833491	     69.20166642	     34.49755552	      0.00000000	      0.00000000	     89.75640533	     -8.33932454	     27.15675801	     67.05721314	     29.30767699	      0.00000000	      0.00000000
      7.54500000	    -17.93595714	      5.12996436	      5.96922302	      0.15273755	      1.14887823	     -0.22612567	      0.00000000	      0.50000000	      0.00000000	      0.25000000	     60.22156180	    -13.15714632	     -3.49775351	     79.94506599	      1.39530462	     -9.23224592	    -10.40600705	      0.00000000	      0.00000000	     79.93188381	      0.49303403	      0.75172228	     80.35659287	      1.40248712	     13.16652717	      6.23437735	      0.00000000	      0.00000000	    -64.27250598	     -3.16088188	     -2.19246987	     89.36959214	    -30.12048388	     31.93894285	     69.15079479	     34.51804597	      0.00000000	      0.00000000	     89.74328461	     -8.38184883	     27.18300676	     67.01031654	     29.27507994	      0.00000000	      0.00000000
      7.55000000	    -17.55175676	      5.21302633	      5.80242278	      0.15266116	      1.14804061	     -0.22626240	      0.00000000	      0.50000000	      0.00000000	      0.25000000	     61.29123881	    -13.15948858	     -2.98759049	     82.26580255	      1.43580912	    -10.86650731	    -11.35931353	      0.00000000	      0.00000000	     77.67826388	      0.67499891	      0.56975326	     77.68507527	      1.35586034	     14.53152229	      5.52236091	      0.00000000	      0.00000000	    -64.43119013	     -3.28474470	     -2.09640824	     89.30680995	    -30.10651482	     31.92088995	     68.90232042	     34.54891885	      0.00000000	      0.00000000	     89.74538326	     -8.17969867	     27.57060412	     66.55450267	     29.11866697	      0.00000000	      0.00000000
